<svg width="20" height="20" viewBox="0 0 20 20" fill="none" xmlns="http://www.w3.org/2000/svg">
<path d="M19.323 1.73685C19.3069 1.46162 19.1903 1.20188 18.9954 1.00694C18.8004 0.811995 18.5407 0.695421 18.2655 0.679348C14.553 0.46091 11.2727 0.898723 8.51548 1.97966C5.87736 3.01372 3.84392 4.61685 2.63267 6.6156C0.980794 9.34466 0.977044 12.6578 2.59048 15.8209L0.956419 17.455C0.851772 17.5596 0.768761 17.6839 0.712127 17.8206C0.655492 17.9573 0.626343 18.1039 0.626343 18.2519C0.626343 18.3998 0.655492 18.5464 0.712127 18.6831C0.768761 18.8198 0.851772 18.9441 0.956419 19.0487C1.16776 19.2601 1.45441 19.3788 1.75329 19.3788C1.90129 19.3788 2.04783 19.3497 2.18456 19.293C2.32129 19.2364 2.44552 19.1534 2.55017 19.0487L4.18423 17.4147C5.75361 18.2153 7.36048 18.6193 8.91392 18.6193C10.4922 18.6243 12.0411 18.1927 13.3895 17.3725C15.3883 16.1612 16.9914 14.1268 18.0255 11.4897C19.1036 8.7306 19.5414 5.44935 19.323 1.73685ZM12.2205 15.445C10.337 16.5859 8.12736 16.6722 5.87173 15.7187L13.7974 7.7931C13.902 7.68845 13.985 7.56422 14.0416 7.42749C14.0983 7.29076 14.1274 7.14422 14.1274 6.99622C14.1274 6.84823 14.0983 6.70169 14.0416 6.56496C13.985 6.42823 13.902 6.304 13.7974 6.19935C13.6927 6.0947 13.5685 6.01169 13.4317 5.95506C13.295 5.89842 13.1485 5.86927 13.0005 5.86927C12.8525 5.86927 12.7059 5.89842 12.5692 5.95506C12.4325 6.01169 12.3083 6.0947 12.2036 6.19935L4.28361 14.1306C3.33298 11.8806 3.41923 9.66529 4.56486 7.78185C6.52517 4.54466 11.178 2.7456 17.1274 2.88341C17.2567 8.83091 15.4577 13.4847 12.2205 15.445Z" fill="black"/>
</svg>
